<svg width="126" height="40" viewBox="0 0 126 40" fill="none" xmlns="http://www.w3.org/2000/svg"><path d="M79.473 19.765c0-3.007 2.388-5.445 5.334-5.445 2.945 0 5.333 2.438 5.333 5.445m0 5.889c0 3.03-2.388 5.485-5.333 5.485m-6.739-6.259c-2.344 0-4.245-2.389-4.245-5.334m10.972 5.404a5.322 5.322 0 01-5.322-5.323m-20.126.053a5.322 5.322 0 1110.644 0m-10.644-.043v6.025m10.644-6.168v6.168m40.715-7.118v7.11m-8.478-9.231v9.232m-8.478-7.291v7.29M73.823 13.623v6.104m46.283 5.275h-1.225m-32.999-.052H84.73m.185 6.19h-2.403m7.628-11.428v6.106m23.46-6.001c0-3.006 2.388-5.444 5.333-5.444 2.946 0 5.334 2.438 5.334 5.444m-5.345 5.185a5.322 5.322 0 01-5.322-5.322m10.666 0v6.105M93.75 18.632c0-2.375 1.897-4.3 4.239-4.3 2.341 0 4.239 1.925 4.239 4.3" stroke="#000" stroke-width="1.534" stroke-miterlimit="10"/><path d="M102.228 18.61c0-2.374 1.897-4.3 4.239-4.3 2.341 0 4.239 1.926 4.239 4.3" stroke="#000" stroke-width="1.534" stroke-miterlimit="10"/><path fill-rule="evenodd" clip-rule="evenodd" d="M72.746 11.15a1.05 1.05 0 112.102 0 1.05 1.05 0 01-2.102 0z" fill="#000"/><path d="M56.806 20.28l-6.319-.008m3.329 4.694H50.65m-5.252-5.184c0-3.007 2.388-5.445 5.334-5.445 2.945 0 5.309 2.235 5.309 5.242m-5.321 5.387a5.322 5.322 0 01-5.322-5.322" stroke="#000" stroke-width="1.534" stroke-miterlimit="10"/><path d="M25.54 15.412l-7.62-4.616-7.756 4.616 7.633 4.396 7.743-4.396z" fill="#E72E9D"/><path d="M18.059 28.771l7.694-4.098.227-9.138-7.984 4.488.063 8.748z" fill="#20B1F9"/><path d="M18.038 28.943l-.31-8.935-7.711-4.444-.307 8.798 8.328 4.581z" fill="#095198"/><path d="M34.107 29.663v-19.33M1.601 29.66V10.337m16.022 28.657l16.7-9.724M1.375 10.733L18.09 1m.003 38L1.378 29.267m16.495-9.225l16.075-9.36m-16.121 9.361L1.755 10.684m32.584.053L17.625 1.005m8.13 23.825v-9.568M9.954 24.836v-9.564m7.978 13.853l8.055-4.69M9.795 15.527l8.281-4.821m-.299 18.42l-8.053-4.689m16.186-8.912l-8.282-4.821" stroke="#000" stroke-width=".933" stroke-miterlimit="10"/><path d="M18.497 4.355a.648.648 0 11-1.295 0 .648.648 0 011.295 0zm0 3.25a.648.648 0 11-1.295 0 .648.648 0 011.295 0zM5.167 27.74a.648.648 0 11-1.296 0 .648.648 0 011.296 0zm2.737-1.534a.648.648 0 11-1.296 0 .648.648 0 011.296 0zM31.89 27.72a.648.648 0 11-1.295 0 .648.648 0 011.296 0zm-2.725-1.534a.648.648 0 11-1.295 0 .648.648 0 011.295 0z" fill="#000"/><path d="M17.828 19.968v18.881" stroke="#000" stroke-width=".933" stroke-miterlimit="10"/></svg>