<svg version="1.1" id="Layer_1" xmlns="http://www.w3.org/2000/svg" x="0" y="0" width="128" height="128" viewBox="0 0 128 128" xml:space="preserve"><style>.st3{display:none;fill:#2845ae}</style><circle cx="64" cy="64" r="64" fill="#fff"/><g id="Symbol_x5F_terra"><path class="st3" d="M31.81 19.23C13.62 43.27 83.6 60 108.37 55.96c4.35-.71 17.58-2.87 8.53-20.18-1.27-2.16-3.05-5.01-4.47-7.08a137.3 137.3 0 00-6-6.99c-.6-.6-1.2-1.18-1.83-1.75-4.83-4.22-14.89-13-40.66-13.3-15.24.32-26.06 4.55-32.13 12.57"/><path d="M55.61 97.29c3.29 12.16 15.08 21.44 21.04 21.06.21-.01 22.6-4.19 34.85-24.66 9.54-15.93 6.29-31.32-6.68-31.65-4.67.33-55.48 12.07-49.21 35.25m48-78.13l-.01-.01.02-.01C93.68 10.67 80.8 5.58 66.72 5.58c-8.23 0-16.04 1.76-23.1 4.91-1.27.53-2.47 1.12-3.61 1.77-.8.43-1.6.85-2.37 1.31l.19.06c-2.34 1.62-4.36 3.51-6.01 5.69-16.34 21.59 38.43 37.28 67.7 37.33 13.47 9.65 17.25-27.25 4.09-37.49z" fill="#0e3ca5"/><path class="st3" d="M115.66 83.92c3.7-12.17-.43-22.14-10.85-22.4-4.67.34-55.47 12.08-49.21 35.25 3.29 12.16 15.08 21.44 21.04 21.06.19-.01 17.82-3.31 30.36-18.35 5.22-3.41 9.21-6.04 9.27-6.14 1.31-2.31 2.46-4.72 3.46-7.21-.37-.4-1.87-1.19-4.07-2.21z"/><path d="M46.91 19.6c-7.52 11.31-32.58 19.28-36.7 18.04-.01-.02-.02-.04-.03-.05.17-.34.34-.68.52-1.02 1.43-2.75 3.06-5.38 4.88-7.86s3.83-4.82 6-6.99 4.51-4.18 6.99-6c1.54-1.13 3.14-2.19 4.79-3.17 3.51-2.03 7.1-2.16 8.28-2.21 11.16.21 5.33 9.17 5.27 9.26m-6.17 79.91c.54 3.55-.01 17.59-.74 18.77-.63.04-1.93.12-5.71-2a58.49 58.49 0 01-5.73-3.72 60.595 60.595 0 01-12.99-12.99 60.313 60.313 0 01-4.88-7.86 58.955 58.955 0 01-3.64-8.61c-.99-2.98-1.76-6.07-2.27-9.23C4.27 70.7 4 67.45 4 64.13c0-3.31.27-6.56.79-9.73a60.11 60.11 0 012.9-11.03c4.33 5.75 9.33 10.96 13.59 16.77 4.05 5.53 9.63 14.55 10.76 16.48 7.04 11.96 8.16 19.34 8.7 22.89M124 64.13c0 7.78-1.48 15.22-4.18 22.04-7.07 7.6-54.72-11.1-55.18-11.31C58.12 72 38.29 63.32 36.5 49.66c-2.57-19.64 37.27-33.32 54.77-33.84 2.1.02 8.49.1 12.21 3.12C116.06 29.95 124 46.12 124 64.13m-32.25 53.22c-5.19 2.42-10.91.66-9.43-4.4 2.85-9.71 27.76-19.67 33.26-20.21.68-.07.97.4.67.92-5.74 10.05-14.23 18.33-24.5 23.69" fill="#5493f7"/></g></svg>